<svg class="svg-icon" style="width: 1em; height: 1em;vertical-align: middle;fill: currentColor;overflow: hidden;" viewBox="0 0 1024 1024" version="1.1" xmlns="http://www.w3.org/2000/svg"><path d="M298 881.8c-32.2 0-58.4-26.2-58.4-58.4s26.2-58.4 58.4-58.4h428c32.2 0 58.4-26.2 58.4-58.4v116.8c0 32.2-26.2 58.4-58.4 58.4H298z" fill="#59C3F0" /><path d="M726 765v58.4c0 32.2-26.2 58.4-58.4 58.4H726c32.2 0 58.4-26.2 58.4-58.4v-116.8c0 32.2-26.2 58.4-58.4 58.4z" fill="#21A0D6" /><path d="M356.4 881.8c-32.2 0-58.4-26.2-58.4-58.4s26.2-58.4 58.4-58.4H298c-32.2 0-58.4 26.2-58.4 58.4s26.2 58.4 58.4 58.4h58.4z" fill="#96DCFA" /><path d="M726 891.4H298c-37.6 0-68.2-30.6-68.2-68.2s30.6-68.2 68.2-68.2h428c26.8 0 48.6-21.8 48.6-48.6 0-5.4 4.4-9.8 9.8-9.8s9.8 4.4 9.8 9.8v116.8c0 37.6-30.6 68.2-68.2 68.2z m-428-116.8c-26.8 0-48.6 21.8-48.6 48.6S271.2 872 298 872h428c26.8 0 48.6-21.8 48.6-48.6v-69.2c-12.4 12.6-29.6 20.4-48.6 20.4H298z" fill="#402943" /><path d="M726 765c32.2 0 58.4-26.2 58.4-58.4v-506c0-32.2-26.2-58.4-58.4-58.4H298c-32.2 0-58.4 26.2-58.4 58.4v622.6c0-32.2 26.2-58.4 58.4-58.4l428 0.2z" fill="#FFFFFF" /><path d="M726 142.2h-58.4c32.2 0 58.4 26.2 58.4 58.4v506c0 32.2-26.2 58.4-58.4 58.4H726c32.2 0 58.4-26.2 58.4-58.4v-506c0-32.2-26.2-58.4-58.4-58.4zM298 200.6c0-32.2 26.2-58.4 58.4-58.4H298c-32.2 0-58.4 26.2-58.4 58.4v622.6c0-32.2 26.2-58.4 58.4-58.4V200.6zM356.4 765H726z" fill="#E6E7E8" /><path d="M239.6 833c-5.4 0-9.8-4.4-9.8-9.8V200.6c0-37.6 30.6-68.2 68.2-68.2h428c37.6 0 68.2 30.6 68.2 68.2v506c0 37.6-30.6 68.2-68.2 68.2H298c-26.8 0-48.6 21.8-48.6 48.6 0 5.4-4.4 9.6-9.8 9.6zM298 152c-26.8 0-48.6 21.8-48.6 48.6v575c12.4-12.6 29.6-20.4 48.6-20.4h428c26.8 0 48.6-21.8 48.6-48.6v-506c0-26.8-21.8-48.6-48.6-48.6H298z" fill="#402943" /><path d="M648.2 813.6H243c-5.4 0-9.8-4.4-9.8-9.8s4.4-9.8 9.8-9.8h405.2c5.4 0 9.8 4.4 9.8 9.8s-4.4 9.8-9.8 9.8z" fill="#402943" /><path d="M648.2 852.6H243c-5.4 0-9.8-4.4-9.8-9.8s4.4-9.8 9.8-9.8h405.2c5.4 0 9.8 4.4 9.8 9.8s-4.4 9.8-9.8 9.8z" fill="#402943" /><path d="M298 225c-2.6 0-4.8-2.2-4.8-4.8v-78c0-2.6 2.2-4.8 4.8-4.8 2.6 0 4.8 2.2 4.8 4.8V220c0 2.8-2.2 5-4.8 5zM298 769.8c-2.6 0-4.8-2.2-4.8-4.8v-506c0-2.6 2.2-4.8 4.8-4.8 2.6 0 4.8 2.2 4.8 4.8v506c0 2.6-2.2 4.8-4.8 4.8z" fill="#402943" /><path d="M626.2 298h-169.8c-39 0-70.8 31.6-70.8 70.8 0 39 31.6 70.8 70.8 70.8 29 0 54-17.4 64.8-42.4h40.2c11 25 35.8 42.4 64.8 42.4 39 0 70.8-31.6 70.8-70.8S665.2 298 626.2 298z" fill="#E6E7E8" /><path d="M456.2 317.4H626c35.8 0 65.4 26.6 70 61 0.4-3.2 0.6-6.4 0.6-9.8 0-39-31.6-70.8-70.8-70.8H456c-39 0-70.8 31.6-70.8 70.8 0 3.4 0.2 6.6 0.6 9.8 5.2-34.4 34.8-61 70.4-61z" fill="#FFFFFF" /><path d="M626.2 449.2c-29.8 0-57-16.4-71-42.4h-28c-14 26-41.2 42.4-71 42.4-44.4 0-80.4-36.2-80.4-80.4s36.2-80.4 80.4-80.4H626c44.4 0 80.4 36.2 80.4 80.4s-36 80.4-80.2 80.4z m-105-62h40.2c3.8 0 7.4 2.2 9 5.8 9.8 22.2 31.6 36.6 56 36.6 33.6 0 61-27.4 61-61s-27.4-61-61-61h-169.8c-33.6 0-61 27.4-61 61s27.4 61 61 61c24.2 0 46.2-14.4 56-36.6 1.2-3.4 4.6-5.8 8.6-5.8z" fill="#402943" /><path d="M626.2 347.4m-9.8 0a9.8 9.8 0 1 0 19.6 0 9.8 9.8 0 1 0-19.6 0Z" fill="#402943" /><path d="M626.2 390m-9.8 0a9.8 9.8 0 1 0 19.6 0 9.8 9.8 0 1 0-19.6 0Z" fill="#402943" /><path d="M647.4 368.8m-9.8 0a9.8 9.8 0 1 0 19.6 0 9.8 9.8 0 1 0-19.6 0Z" fill="#402943" /><path d="M604.8 368.8m-9.8 0a9.8 9.8 0 1 0 19.6 0 9.8 9.8 0 1 0-19.6 0Z" fill="#402943" /><path d="M446.6 340.4h19.4v56.6h-19.4z" fill="#402943" /><path d="M428 359h56.6v19.4H428z" fill="#402943" /><path d="M548.2 364.2H534c-5.4 0-9.8-4.4-9.8-9.8s4.4-9.8 9.8-9.8h14.2c5.4 0 9.8 4.4 9.8 9.8 0 5.6-4.4 9.8-9.8 9.8z" fill="#402943" /><path d="M444 492.6h194.6v39H444z" fill="#FFFFFF" /><path d="M444 512h194.6v19.4H444z" fill="#E6E7E8" /><path d="M638.4 541.2H444c-5.4 0-9.8-4.4-9.8-9.8v-39c0-5.4 4.4-9.8 9.8-9.8h194.6c5.4 0 9.8 4.4 9.8 9.8v39c-0.2 5.4-4.6 9.8-10 9.8z m-184.8-19.4h175.2v-19.4h-175.2v19.4z" fill="#402943" /><path d="M515.2 658L490 632.8l25.2-25.2-27.4-27.4-25.2 25.2-25.2-25.2-27.6 27.4 25.2 25.2-25.2 25.2 27.6 27.6 25.2-25.2 25.2 25.2z" fill="#F05458" /><path d="M437.4 695.2c-2.6 0-5-1-6.8-2.8l-27.6-27.6c-1.8-1.8-2.8-4.2-2.8-6.8 0-2.6 1-5 2.8-6.8l18.2-18.2-18.2-18.2c-3.8-3.8-3.8-10 0-13.8l27.6-27.6c1.8-1.8 4.2-2.8 6.8-2.8 2.6 0 5 1 6.8 2.8l18.2 18.2 18.2-18.2c1.8-1.8 4.2-2.8 6.8-2.8s5 1 6.8 2.8l27.6 27.6c3.8 3.8 3.8 10 0 13.8l-18.2 18.2 18.2 18.2c1.8 1.8 2.8 4.2 2.8 6.8 0 2.6-1 5-2.8 6.8l-27.6 27.6c-3.8 3.8-10 3.8-13.8 0l-18.2-18.2-18.2 18.2c-1.6 1.8-4 2.8-6.6 2.8z m25.2-44.6c2.4 0 5 1 6.8 2.8l18.2 18.2 13.8-13.8-18.2-18.2c-3.8-3.8-3.8-10 0-13.8l18.2-18.2-13.8-13.8-18.2 18.2c-1.8 1.8-4.2 2.8-6.8 2.8s-5-1-6.8-2.8l-18.2-18.2-13.8 13.8 18.2 18.2c1.8 1.8 2.8 4.2 2.8 6.8 0 2.6-1 5-2.8 6.8l-18.2 18.2 13.8 13.8 18.2-18.2c1.8-1.6 4.2-2.6 6.8-2.6z" fill="#402943" /><path d="M618.2 687.2c-30 0-54.2-24.4-54.2-54.2 0-30 24.4-54.2 54.2-54.2 30 0 54.2 24.4 54.2 54.2 0.2 29.8-24.2 54.2-54.2 54.2z m0-69.8c-8.4 0-15.4 6.8-15.4 15.4 0 8.4 6.8 15.4 15.4 15.4 8.4 0 15.4-6.8 15.4-15.4 0-8.4-7-15.4-15.4-15.4z" fill="#4AB5AC" /><path d="M618.2 696.8c-35.2 0-64-28.8-64-64s28.8-64 64-64 64 28.8 64 64c0 35.4-28.6 64-64 64z m0-108.4c-24.6 0-44.6 20-44.6 44.6s20 44.6 44.6 44.6 44.6-20 44.6-44.6c0-24.8-20-44.6-44.6-44.6z m0 69.6c-13.8 0-25-11.2-25-25s11.2-25 25-25 25 11.2 25 25c0.2 13.6-11.2 25-25 25z m0-30.8c-3.2 0-5.6 2.6-5.6 5.6 0 3.2 2.6 5.6 5.6 5.6s5.6-2.6 5.6-5.6c0-3-2.4-5.6-5.6-5.6z" fill="#402943" /></svg>